<svg xmlns="http://www.w3.org/2000/svg" data-name="图层 1" viewBox="0 0 256 256" id="boy"><path fill="#fcc2b0" d="M67 254.46c1.27-1.27 120.69-1.27 119.42 0 0-22.62-21.43-46.47-49.58-51.23v-25.48h-20.3v25.48C88.39 208 67 231.84 67 254.46Z"></path><path fill="#3593bb" d="M161.43 242h22.86c-5.24-15.87-19.88-30.48-38.7-36.59a45.71 45.71 0 0 1-37-.28c-19.22 5.92-34.22 20.74-39.54 36.87h22.86v11.69c20.41-.22 49.12-.22 69.52 0Z"></path><path fill="#c3edfc" d="M184.28 242h-23.11v5h24.45a43.29 43.29 0 0 0-1.34-5zm-115.17 0a41.32 41.32 0 0 0-1.33 5h24.44v-5zm55.53-32.92c-.75 0-1.5-.11-2.23-.18h-.39c-.76-.09-1.51-.19-2.25-.31h-.08c-.76-.13-1.5-.27-2.23-.43h-.17c-.74-.17-1.45-.35-2.16-.54l-.23-.07c-.72-.2-1.42-.41-2.11-.65h-.05a36.83 36.83 0 0 1-4-1.65h-.09c-1.45.45-2.88 1-4.29 1.51 5.8 4 14 6.54 23.09 6.54 8.8 0 16.77-2.35 22.53-6.16-1.42-.58-2.86-1.13-4.34-1.61-.63.29-1.28.57-2 .83h-.07a40.87 40.87 0 0 1-4.22 1.38q-1 .27-2.13.51l-.26.05c-.72.15-1.44.28-2.18.4h-.06c-.7.11-1.42.2-2.15.28h-.32c-.71.08-1.43.13-2.16.17h-.43c-.75 0-1.5.06-2.26.06s-1.59 0-2.37-.06z"></path><path fill="#41acc1" d="M92 242h69v8H92z"></path><path fill="#f7b59e" d="M116.54 177.75h20.26V194h-20.26z"></path><path fill="#d49905" d="M100.92 27.5s4.22-10.94 10.69-14.27C110.47 13 98 15.79 90 27.1c-7.11 10.06 6 6.39 6 6.39Z"></path><path fill="#d49905" d="M87.16 35.53S90.72 21.81 97 18.05c-1.16-.21-11 5.66-20 19.24-6.83 10.3 5.57 4.55 5.57 4.55zm24.08-13.13s4.53-7.93 10-9.59c-.86-.39-6.79-1.72-12.59 6.06s-1.89 7.49-1.89 7.49zm38.98 3.97S146 15.43 139.53 12.1c1.15-.29 13.62 2.56 21.62 13.87 7.11 10.06-6 6.39-6 6.39z"></path><path fill="#d49905" d="M164 34.4s-3.55-13.72-9.83-17.48c1.16-.21 11 5.66 20 19.23 6.83 10.31-5.57 4.56-5.57 4.56zm-24.09-13.13s-4.53-7.93-10-9.59c.86-.39 6.78-1.72 12.59 6.06s1.89 7.49 1.89 7.49zm-15.53-.79S130 11.26 129 9c-3 3.39-7.17 4.94-12 10.18-6.5 7.05 3.67 6.22 3.67 6.22z"></path><path fill="#fcc2b0" d="M59 123.9c3.29 4.2 2.66 15.92 1.14 17.12s-13-1-16.34-5.19A9.66 9.66 0 0 1 59 123.9zm138.4 0c-3.29 4.2-2.66 15.92-1.14 17.12s13.05-1 16.34-5.19a9.66 9.66 0 0 0-15.2-11.93z"></path><path fill="#fccdbf" d="M199.55 126.45c5.16 43.81-27.26 62.05-71 62.05s-78.15-18.24-72.95-62c5.35-43.81 5.42-75.21 72-75.21 67.4-.05 66.6 31.35 71.95 75.16Z" data-name="face"></path><path fill="none" stroke="#d17a43" stroke-linecap="round" stroke-linejoin="round" stroke-width="3" d="M134 132.89a6.44 6.44 0 0 0-12.87 0"></path><path fill="none" stroke="#a67804" stroke-linecap="round" stroke-linejoin="round" stroke-width="5" d="M84.07 94.68a8.94 8.94 0 0 1 6.4-3.32 9.09 9.09 0 0 1 3.51.49m76.19 2.83a8.94 8.94 0 0 0-6.4-3.32 9.09 9.09 0 0 0-3.51.49"></path><circle cx="91.02" cy="119.87" r="9.8" fill="#fff"></circle><circle cx="91.02" cy="119.87" r="6.24" fill="#271d13"></circle><circle cx="94.59" cy="118.09" r="2.67" fill="#fff"></circle><path fill="none" stroke="#271d13" stroke-linecap="round" stroke-linejoin="round" stroke-width="2" d="M82.89 114.39A9.81 9.81 0 0 1 98 112.94"></path><circle cx="163.22" cy="119.87" r="9.8" fill="#fff"></circle><circle cx="163.22" cy="119.87" r="6.24" fill="#271d13"></circle><path fill="none" stroke="#271d13" stroke-linecap="round" stroke-linejoin="round" stroke-width="2" d="M171.35 114.39a9.82 9.82 0 0 0-15.07-1.45"></path><circle cx="167.67" cy="118.09" r="2.67" fill="#fff"></circle><g fill="none" stroke="#d17a43" stroke-linejoin="round"><path stroke-width="2" d="M158.8 155c-5.8 4-14.8 10-29.8 10s-22.64-5.81-28.58-9.65"></path><path stroke-linecap="round" d="M159.16 157.82a2.64 2.64 0 0 0-2.2-4.08m-56.62 4.08a2.64 2.64 0 0 1 2.21-4.08"></path></g><ellipse cx="79" cy="141.31" fill="#f4aba8" rx="12.94" ry="8.91" transform="rotate(-2.04 78.951 141.304)"></ellipse><circle cx="72.3" cy="138.59" r="3.57" fill="#fff" opacity=".2"></circle><ellipse cx="175.26" cy="141.31" fill="#f4aba8" rx="8.91" ry="12.94" transform="rotate(-87.96 175.265 141.306)"></ellipse><circle cx="181.96" cy="138.59" r="3.57" fill="#fff" opacity=".2"></circle><path fill="#d49905" d="M205 91a116.09 116.09 0 0 1-6.56 39.21c-5.17 14.45.95-52.19-18.71-62s-25.26 4.15-54.73 5.56c-16.73.79-44.33-20.93-53.34-1.41-8.42 18.25-9.82 33.69-11.23 50.54-.39 4.7-3.55 5.62-4.72.75A139.92 139.92 0 0 1 52 91c0-40.5 34.25-73.34 76.5-73.34S205 50.46 205 91Z"></path></svg>