<svg xmlns="http://www.w3.org/2000/svg" viewBox="0 0 48 48" id="girl"><path fill="#ec6161" d="M36.9 34.1V42c0 2.2-1.8 4-4 4h-16c-2.2 0-4-1.8-4-4v-7.9c0-1.6 1.5-3.1 3.3-4 1.2-.6 2.6-1 3.8-1h10c2.7-.1 6.9 2.2 6.9 5z"></path><path fill="#fcd0a3" d="M35.9 10v14c0 2.8-2.2 5-5 5h-12c-2.8 0-5-2.2-5-5V10c0-2.7 22-2.7 22 0z"></path><path fill="#e7ab8a" d="M24.7 23.7c-.8 0-1.6-.4-2.4-1.1-.2-.2-.2-.5 0-.7s.5-.2.7 0c1.1 1.1 2.2 1.1 3.3 0 .2-.2.5-.2.7 0s.2.5 0 .7c-.7.7-1.5 1.1-2.3 1.1z"></path><path fill="#fcd0a3" d="M26.9 34h-4c-1.7 0-3-1.3-3-3v-2h10v2c0 1.7-1.3 3-3 3z"></path><path fill="#211915" d="M32.1 37.5V46h-1v-8.5c0-.3.2-.5.5-.5s.5.2.5.5zm-13.5 0V46h-1v-8.5c0-.3.2-.5.5-.5s.5.2.5.5z" opacity=".43"></path><path fill="#e7ab8a" d="M29.9 30c-3.3.9-6.6 1-10 0v-1h10v1z"></path><path fill="#fa9801" d="M15.2 17.4c1-.8-3-7.7-3.2-7.7-2.1.3-3.7 2.1-3.7 4.3 0 .8.2 1.6.6 2.2-1.2.8-2.4 3.6-1 5.5-.6.5-1 1.3-1 2.3 0 1.2.8 2.3 1.9 2.7-.4 2.8 2.2 2.8 2.2 2.8v1.4c0 .6.7 1 1.2.7l2.5-1.7c.5-.4.4-1.2-.2-1.4L13 28c.4-1.1-.2-2.1-.7-2.5.3-.5.5-.9.4-1.9.7-.2 1.4-.6 1.9-1.1.7-.8.8-4.8.6-5.1zm19.8 0c-1.7-8.8 3-7.7 3.2-7.7 2.1.3 3.7 2.1 3.7 4.3 0 .8-.2 1.6-.6 2.2 1.2.8 2.4 3.6 1 5.5.6.5 1 1.3 1 2.3 0 1.2-.8 2.3-1.9 2.7.4 2.8-2.2 2.8-2.2 2.8v1.4c0 .6-.7 1-1.2.7l-2.5-1.7c-.5-.4-.4-1.2.2-1.4l1.4-.5c-.4-1.1.2-2.1.7-2.5-.3-.5-.5-.9-.4-1.9-.7-.2-1.4-.6-1.9-1.1-.6-.8-.7-4.8-.5-5.1z"></path><path fill="#e7ab8a" d="M30.9 6.1c-20.3 7.1-15.2 13.3-15.2 13.3 7.2 0 11-4.8 13-8.6.2 2.7 1.3 7.7 5.4 8.6.4.1.1-1.7.6-1.7 0 0 .2-6.9-3.8-11.6z"></path><path fill="#fa9801" d="M30.9 5s-2.2-1.5-3.2-2C21.9.4 16.9 3 14.9 4.3c-2.5 1.6-2.7 4.2-2.9 5.4-.3 1.9 1.4 7.5 1.9 8.3l1.8.3c7.2 0 11.2-4.8 13.3-8.7.2 2.7 1.1 7.8 5.2 8.7.4.1 1.1-.4 1.5-.4C35.6 18 41.9 7 30.9 5z"></path><path fill="#211915" d="M27.7 3.1c-5.2.4-9.7 3.5-12 7.8-.8 1.6-1.4 3.3-1.7 5.1-.1.6-.1 1.3-.1 2 0 1.5.3 3 .7 4.4-.5.5-1.2.9-1.9 1.1 0 .1.2 1.1-.4 1.9.5.4.9 1 .9 1.8 0 .3 0 .5-.1.7l1.4.5c.6.2.7 1 .2 1.4l-2.5 1.7c-.5.4-1.2 0-1.2-.7v-1.4h-.1c-1.2 0-2.3-1-2.3-2.3 0-.2 0-.4.1-.6-1.1-.4-1.9-1.5-1.9-2.7 0-.9.4-1.7 1-2.3-.4-.6-.6-1.4-.6-2.1 0-1.4.6-2.6 1.6-3.3-.4-.6-.6-1.4-.6-2.2 0-2.2 1.6-4 3.7-4.3.2-1.2.6-2.4 1.2-3.6.4-.7.9-1.3 1.6-1.8 2.2-1.2 7.2-3.8 13-1.1z" opacity=".15"></path><circle cx="35.4" cy="20.5" r="2.5" fill="#fcd0a3"></circle><circle cx="14.4" cy="20.5" r="2.5" fill="#fcd0a3"></circle><path fill="#edeef0" d="M25.3 41.2c0-.1-.2-.2-.4-.2s-.3.2-.4.2l-1.1 2.4c-.1.2 0 .5.2.6.3.1.5-.1.6-.2l.2-.4h1.1l.2.4c.1.2.3.3.6.2.2-.1.3-.3.2-.6l-1.2-2.4zm-.5 1.5.2-.3.2.3h-.4zm-3.6-1.8s-.4 0-.4.4v2.6c0 .5.4.4.4.4 1 0 1.7-.8 1.7-1.7 0-.9-.7-1.7-1.7-1.7zm.4 2.5v-1.5c.3.2.4.4.4.7.1.4-.1.6-.4.8zm5.7-2.5s-.4 0-.4.4v2.6c0 .5.4.4.4.4 1 0 1.7-.8 1.7-1.7 0-.9-.7-1.7-1.7-1.7zm.4 2.5v-1.5c.3.2.4.4.4.7.1.4-.1.6-.4.8zM22.2 39.3c-.2 0-.4-.2-.4-.4v-2.6c0-.2.2-.4.4-.4s.4.2.4.4v2.6c0 .2-.2.4-.4.4z"></path><path fill="#d63030" d="M25.9 39.3c-2.3-.8-2.1-2.4-2.1-2.4 0-.6.5-1.1 1.1-1.1s1.1.5 1.1 1.1c0-.6.5-1.1 1.1-1.1s1.1.5 1.1 1.1c-.2.1-.1 1.6-2.3 2.4"></path><path fill="#211915" d="M21.8 46h-4.9c-2.2 0-4-1.8-4-4v-7.9c0-1.1.7-2.2 1.8-3.1.1 2.9 1 11.2 7.1 15z" opacity=".13"></path></svg>