<svg xmlns="http://www.w3.org/2000/svg" width="110" height="110" viewBox="0 0 110 110" id="goal"><circle cx="55" cy="59" r="50" fill="#e7efff"></circle><circle cx="4" cy="11" r="3" fill="#ff4d69"></circle><circle cx="102" cy="4" r="3" fill="#00c99f"></circle><circle cx="106" cy="98" r="3" fill="#ffa100"></circle><circle cx="11" cy="106" r="3" fill="#00c99f"></circle><path fill="#4e6aff" d="M68,36.885V42H42V36.885A3.885,3.885,0,0,0,38.115,33h0a3.885,3.885,0,0,0-3.885,3.885v67.6A48.192,48.192,0,0,0,42,107.28V102H68v5.28a47.66,47.66,0,0,0,8-2.9V36.885A3.885,3.885,0,0,0,72.115,33h-.23A3.885,3.885,0,0,0,68,36.885ZM68,96H42V84H68Zm0-18H42V66H68Zm0-18H42V48H68Z"></path><path fill="#ffa100" d="M67.87 11.28A2.006 2.006 0 0066 10H59.31L56.88 3.32a2 2 0 00-3.76 0L50.69 10H44a2 2 0 00-1.35 3.48l5.09 4.62-2.62 7.22a2 2 0 002.77 2.47L55 24.24l7.11 3.55A2.005 2.005 0 0063 28a1.962 1.962 0 001.33-.51 1.99 1.99 0 00.55-2.17L62.26 18.1l5.09-4.62A2.017 2.017 0 0067.87 11.28zM54.95 10L55 9.85l.05.15zM35 19H31a2 2 0 010-4h4a2 2 0 010 4zM37 11a1.992 1.992 0 01-1.414-.586l-2-2a2 2 0 012.828-2.828l2 2A2 2 0 0137 11zM35 29a2 2 0 01-1.414-3.414l2-2a2 2 0 012.828 2.828l-2 2A1.992 1.992 0 0135 29zM79 19H75a2 2 0 010-4h4a2 2 0 010 4zM73 11a2 2 0 01-1.414-3.414l2-2a2 2 0 112.828 2.828l-2 2A1.992 1.992 0 0173 11zM75 29a1.992 1.992 0 01-1.414-.586l-2-2a2 2 0 012.828-2.828l2 2A2 2 0 0175 29z"></path><path fill="#fff" d="M30 49a9 9 0 01-9 9H5.02a49.626 49.626 0 017.79-25.83 9.987 9.987 0 017.99 7.84c.07 0 .13-.01.2-.01A9 9 0 0130 49zM105 59a49.629 49.629 0 01-5.1 22H89a9 9 0 010-18c.07 0 .13.01.2.01a9.991 9.991 0 0115.75-6.04C104.99 57.64 105 58.32 105 59z"></path></svg>