<svg xmlns="http://www.w3.org/2000/svg" fill-rule="evenodd" stroke-linejoin="round" stroke-miterlimit="2" clip-rule="evenodd" viewBox="0 0 129 128" id="man"><rect width="128" height="128" x=".374" fill="none"></rect><clipPath id="a"><rect width="128" height="128" x=".374"></rect></clipPath><g clip-path="url(#a)"><circle cx="64.374" cy="64" r="64" fill="#98c6f9"></circle><path fill="#0a5bb5" d="M4.516,86.683c5.859,-4.943 13.368,-7.788 21.306,-7.788c1.39,-0 3.473,-0.262 5.47,-0.576c3.113,-0.368 6.127,-1.326 8.88,-2.823c4.195,-2.2 13.508,-5.913 13.508,-5.913l21.693,-0c-0,-0 1.962,1.251 4.303,2.744c5.504,3.511 10.779,5.568 17.295,5.978c3.92,0.303 7.978,0.59 10.342,0.59c6.349,-0 12.532,1.828 17.829,5.224c-8.439,25.477 -32.472,43.881 -60.768,43.881c-27.337,-0 -50.693,-17.176 -59.858,-41.317Z"></path><path fill="#074488" d="M96.971,82.358c-12.422,-0.782 -21.598,-12.775 -21.598,-12.775c-0,-0 1.962,1.251 4.303,2.744c5.504,3.511 10.779,5.568 17.295,5.978c3.92,0.303 7.978,0.59 10.342,0.59c6.349,-0 12.532,1.828 17.829,5.224c-0.371,1.121 -0.773,2.228 -1.202,3.318c-5.021,-2.924 -10.753,-4.49 -16.627,-4.49c-2.364,0 -6.418,-0.342 -10.342,-0.589Z"></path><path fill="#2f73c0" d="M5.765,89.733c-0.442,-1.006 -0.858,-2.022 -1.249,-3.05c5.859,-4.943 13.368,-7.788 21.306,-7.788c1.39,-0 3.473,-0.262 5.47,-0.576c3.113,-0.368 6.127,-1.326 8.88,-2.823c4.195,-2.2 13.508,-5.913 13.508,-5.913c0,-0 -9.313,7.765 -13.508,9.965c-2.753,1.498 -5.767,2.456 -8.88,2.824c-1.997,0.313 -4.08,0.575 -5.47,0.575c-7.384,0 -14.398,2.463 -20.057,6.786Z"></path><path fill="#fac7a5" d="M55.346,47.195c0.032,-5.08 4.166,-9.194 9.253,-9.194c5.107,0 9.254,4.147 9.254,9.254l2.119,21.314c0.15,0.744 0.229,1.514 0.229,2.302c-0,6.403 -5.199,11.602 -11.602,11.602c-6.403,-0 -11.601,-5.199 -11.601,-11.602c0,-0.788 0.079,-1.558 0.229,-2.302l2.119,-21.314l0,-0.06Z"></path><path fill="#404040" d="M80.09,17.196c-4.674,-4.561 -20.608,-12.469 -30.306,-5.296c-1.947,1.436 -3.426,3.414 -4.254,5.687c-4.098,11.138 1.823,16.877 3.114,24.863l32.34,-0c2.453,-10.281 4.877,-18.415 -0.894,-25.254Z"></path><path fill="#363636" d="M58.494,9.031c8.172,0.313 16.705,5.029 19.918,8.165c5.771,6.839 3.347,14.973 0.895,25.254l1.677,-0c2.453,-10.281 4.877,-18.415 -0.894,-25.254c-3.434,-3.351 -12.946,-8.509 -21.596,-8.165Z"></path><path fill="#5c5c5c" d="M52.775,42.45c-1.291,-7.986 -7.211,-13.725 -3.114,-24.863c0.828,-2.273 2.308,-4.251 4.254,-5.687c2.246,-1.662 4.827,-2.514 7.525,-2.786c-4.149,-0.381 -8.28,0.289 -11.656,2.786c-1.947,1.436 -3.426,3.414 -4.254,5.687c-4.098,11.138 1.823,16.877 3.114,24.863l4.131,-0Z"></path><path fill="#fac7a5" d="M47.272,35.39c1.308,-0.304 3.008,2.201 3.793,5.589c0.786,3.388 0.362,6.384 -0.945,6.688c-1.308,0.303 -3.008,-2.201 -3.794,-5.589c-0.785,-3.388 -0.362,-6.385 0.946,-6.688Z"></path><path fill="#fbcfb2" d="M50.388,47.56c-0.085,0.049 -0.175,0.085 -0.268,0.107c-1.308,0.303 -3.008,-2.201 -3.794,-5.589c-0.785,-3.388 -0.362,-6.385 0.946,-6.688c0.241,-0.056 0.495,-0.017 0.755,0.106c-1.095,0.629 -1.407,3.437 -0.678,6.582c0.641,2.764 1.89,4.939 3.039,5.482Z"></path><path fill="#f9ab8e" d="M82.232 35.39c-1.308-.304-3.007 2.201-3.793 5.589-.786 3.388-.362 6.384.946 6.688 1.307.303 3.007-2.201 3.793-5.589.786-3.388.362-6.385-.946-6.688zM75.647 74.42c.212.423-.525-.973-.651-2.248-.001 0-.001 0-.001 0-.299-3.011-3.253-6.141-6.749-6.178-1.108-.013-2.236-.176-3.314-.524-15.655-5.044-9.005-17.759-9.005-17.759l0-.06c.026-4.101 2.653-7.573 6.27-8.758.625-.551 1.428-.892 2.402-.892 4.573 0 8.376 3.325 9.121 7.686.142.652.217 1.329.217 2.024l1.396 14.429.639 6.429c.1.498.169 1.007.203 1.525 0 0 .17 2.663-.528 4.326z"></path><path fill="#fac7a5" d="M64.911,20.692c20.595,-0 9.195,4.098 11.783,10.138c1.192,2.783 3.433,5.978 3.433,9.375c-0,10.769 -6.818,19.513 -15.216,19.513c-8.398,-0 -15.216,-8.744 -15.216,-19.513c-0,-3.397 1.453,-6.592 2.645,-9.375c2.588,-6.04 -6.897,-10.138 12.571,-10.138Z"></path><path fill="#f9ab8e" d="M74.747,21.347c6.161,1.385 -0.031,4.867 1.947,9.483c1.192,2.783 3.433,5.978 3.433,9.375c-0,4.989 -1.464,9.544 -3.869,12.995c1.381,-3.302 2.177,-7.169 2.177,-11.303c-0,-3.818 -2.241,-7.409 -3.434,-10.537c-1.745,-4.578 2.873,-8.164 -0.254,-10.013Z"></path><path fill="#404040" d="M56.767 33.59c0 0 .337-.414.754-.751.624-.506 1.198-.727 1.58-.9.278-.125.604-.232 1.059-.298.202-.03.341-.217.312-.418-.03-.202-.217-.342-.418-.312-1.146.167-1.812.505-2.576 1.357-.431.48-.711 1.322-.711 1.322zM74.483 33.59c0 0-.337-.414-.753-.751-.625-.506-1.199-.727-1.581-.9-.278-.125-.604-.232-1.059-.298-.201-.03-.341-.217-.312-.418.03-.202.217-.342.419-.312 1.145.167 1.811.505 2.576 1.357.43.48.71 1.322.71 1.322z"></path><path fill="#fbcfb2" d="M65.799,59.685c-0.294,0.022 -0.59,0.033 -0.888,0.033c-8.398,-0 -15.216,-8.744 -15.216,-19.513c-0,-3.397 1.453,-6.592 2.645,-9.375c2.588,-6.04 -6.897,-10.138 12.571,-10.138c0.311,-0 0.614,0.001 0.913,0.003c-18.32,0.121 -9.158,4.186 -11.707,10.135c-1.192,2.783 -2.646,5.978 -2.646,9.375c0,10.387 6.343,18.889 14.328,19.48Z"></path><path fill="#404040" d="M65.795 37.297c0 0 .451 3.263 1.686 4.861.44.57.582 1.153.362 1.535-.206.357-.704.412-1.405.146-.246-.093-.522.031-.616.277-.093.247.031.523.277.616 1.307.496 2.188.103 2.571-.562.368-.638.302-1.644-.433-2.596-1.116-1.444-1.495-4.403-1.495-4.403-.035-.261-.275-.445-.536-.41-.262.034-.446.275-.411.536zM67.926 47.332c0 0-1.889.566-3.188.06-.762-.297-1.492-.692-1.701-1.318-.083-.251-.354-.386-.604-.303-.25.084-.386.355-.302.605.286.86 1.213 1.498 2.26 1.906 1.416.552 3.436 0 3.436 0 .262.028.497-.163.524-.425.027-.262-.163-.498-.425-.525z"></path><path fill="#074488" d="M52.74,70.079l-0.507,5.764c-0.018,0.2 0.131,0.377 0.331,0.395c0.2,0.017 0.377,-0.131 0.395,-0.331l0.507,-5.764c0.018,-0.201 -0.131,-0.378 -0.331,-0.395c-0.2,-0.018 -0.377,0.131 -0.395,0.331Z"></path><ellipse cx="59.971" cy="34.299" fill="#404040" rx=".81" ry="1.145"></ellipse><ellipse cx="70.793" cy="34.299" fill="#404040" rx=".81" ry="1.145"></ellipse></g></svg>