<svg xmlns="http://www.w3.org/2000/svg" enable-background="new 0 0 512 512" viewBox="0 0 512 512" id="parents-and-kid"><path fill="#ffb20f" d="M496,358.7H266V85c0-44.2,35.8-80,80-80h70c44.2,0,80,35.8,80,80V358.7z"></path><path fill="#b2d34b" d="M268,507h239V346.6c0-40.7-27.4-76.4-66.7-86.9l-24.8-6.6h-44l-26.5,6.3c-45.1,10.7-77,51-77,97.3V507z"></path><polygon fill="#ef917b" points="371.5 253 381.5 283 415.5 253 415.5 223 371.5 223"></polygon><path fill="#d84861" d="M244,507H5V346.6c0-40.7,27.4-76.4,66.7-86.9l24.8-6.6h44l26.5,6.3c45.1,10.7,77,51,77,97.3V507z"></path><rect width="10" height="44" x="52" y="359" fill="#c12944"></rect><path fill="#ef917b" d="M140.5 253L140.5 253c0 19-24.3 26.9-35.5 11.6L96.5 253v-30h44V253zM130 155H39c-13.3 0-24-10.7-24-24v0c0-13.3 10.7-24 24-24h91V155zM130 107h91c13.3 0 24 10.7 24 24v0c0 13.3-10.7 24-24 24h-91V107z"></path><path fill="#f5b7a9" d="M130,235L130,235c-43.1,0-78-34.9-78-78V35h156v122C208,200.1,173.1,235,130,235z"></path><path fill="#399349" d="M130,25.9L130,25.9L130,25.9C122.9,13,109.4,5,94.7,5h0C54,5,23.9,42.9,33.2,82.6L39,107h29.2c9.2,0,17.6-5.4,21.3-13.8l8.5-19c5.5-12.2,20-17.3,32-11.3l0,0l0,0c11.9-6.1,26.5-0.9,32,11.3l8.5,19c3.8,8.4,12.1,13.8,21.3,13.8H221l5.7-24.4C236.1,42.9,206,5,165.3,5h0C150.6,5,137.1,13,130,25.9z"></path><path fill="#f5b7a9" d="M381,235L381,235c-43.1,0-78-34.9-78-78V35h156v122C459,200.1,424.1,235,381,235z"></path><rect width="24" height="10" x="337" y="114" fill="#399349"></rect><path fill="#399349" d="M366,153h-10v-14h-7v-10h12c2.8,0,5,2.2,5,5V153z"></path><rect width="24" height="10" x="401" y="114" fill="#399349"></rect><path fill="#399349" d="M406,153h-10v-19c0-2.8,2.2-5,5-5h12v10h-7V153z"></path><path fill="#d84861" d="M381.3,188c-1.1,0-2.2-0.4-3.2-1.1l-12.3-10l6.3-7.8l9.1,7.4l8.5-7.3l6.5,7.6l-11.7,10C383.6,187.6,382.5,188,381.3,188z"></path><rect width="10" height="148" x="450" y="359" fill="#9abd2e"></rect><rect width="24" height="10" x="86" y="114" fill="#399349"></rect><rect width="10" height="19" x="105" y="134" fill="#399349"></rect><rect width="24" height="10" x="150" y="114" fill="#399349"></rect><rect width="10" height="19" x="145" y="134" fill="#399349"></rect><path fill="#ef917b" d="M130,186.3c-8.5,0-17-3.2-23.5-9.7l7.1-7.1c9.1,9.1,23.9,9.1,32.9,0l7.1,7.1C147,183,138.5,186.3,130,186.3z"></path><path fill="#ffcb5c" d="M266,85v106h37v-84h9.6c29.5,0,56.2-17.2,68.4-44l0,0l0,0c12.2,26.8,38.9,44,68.4,44h9.6v47c0,20.4,16.6,37,37,37h0V85c0-44.2-35.8-80-80-80h-70C301.8,5,266,40.8,266,85z"></path><rect width="52" height="104" x="5" y="403" fill="#f5b7a9"></rect><rect width="52" height="30" x="5" y="403" fill="#ef917b"></rect><g><path fill="#ef917b" d="M256 295h-79.2c-11.5 0-20.8-9.3-20.8-20.8v-.3c0-11.5 9.3-20.8 20.8-20.8H256V295zM256 253h79.2c11.5 0 20.8 9.3 20.8 20.8v.3c0 11.5-9.3 20.8-20.8 20.8H256V253z"></path><path fill="#ffcb5c" d="M340,507H172v-70.2c0-21.9,14.2-41.2,35.1-47.7l28.9-9h40l28.9,9c20.9,6.5,35.1,25.9,35.1,47.7V507z"></path><path fill="#ef917b" d="M276,352h-40v28l-14,4.4l0,0c20.4,14.2,47.6,14.2,68,0l0,0l-14-4.4V352z"></path><path fill="#f5b7a9" d="M256,365L256,365c-37.6,0-68-30.4-68-68V191h136v106C324,334.6,293.6,365,256,365z"></path><rect width="10" height="17" x="234" y="277" fill="#399349"></rect><rect width="10" height="17" x="268" y="277" fill="#399349"></rect><path fill="#ef917b" d="M256,323.9L256,323.9c-8,0-15.6-3.5-20.8-9.6l7.6-6.5c3.3,3.9,8.1,6.1,13.2,6.1s9.9-2.2,13.2-6.1l7.6,6.5C271.6,320.4,264,323.9,256,323.9z"></path><rect width="30" height="30" x="172" y="477" fill="#f5b7a9"></rect><rect width="30" height="30" x="310" y="477" fill="#f5b7a9"></rect><rect width="10" height="30" x="197" y="447" fill="#ffb20f"></rect><rect width="10" height="30" x="305" y="447" fill="#ffb20f"></rect><path fill="#399349" d="M176.8,253l-3.4-14.2c-8.9-37.7,19.7-73.8,58.4-73.8h48.3c38.7,0,67.3,36.1,58.4,73.8l-3.4,14.2h-20.7c-10.8,0-19.5-8.7-19.5-19.5V233v0.5c0,10.8-8.7,19.5-19.5,19.5h0c-10.8,0-19.5-8.7-19.5-19.5V233v0.5c0,10.8-8.7,19.5-19.5,19.5h0c-10.8,0-19.5-8.7-19.5-19.5V233v0.5c0,10.8-8.7,19.5-19.5,19.5H176.8z"></path><ellipse cx="219" cy="302.5" fill="#ef917b" rx="11" ry="8.5"></ellipse><ellipse cx="293" cy="302.5" fill="#ef917b" rx="11" ry="8.5"></ellipse><path fill="#47b85b" d="M340.1,224.2c-0.1-6.9-1.3-13.5-3.6-19.7c-1.1,0.4-2.4,0.6-3.9,0.6c-5.1,0-7.4-2.1-11.9-6.9c-5.3-5.5-12.5-13.1-26.4-13.1s-21.1,7.6-26.4,13.1c-4.6,4.8-6.8,6.9-11.9,6.9c-5.1,0-7.3-2.1-11.9-6.9c-5.3-5.5-12.5-13.1-26.4-13.1c-13.9,0-21.1,7.6-26.4,13.1c-4.6,4.8-6.8,6.9-11.9,6.9c-1.5,0-2.7-0.2-3.8-0.6c-2.3,6.2-3.5,12.9-3.6,19.7c2.3,0.5,4.7,0.8,7.5,0.8c13.9,0,21.1-7.6,26.4-13.1c4.6-4.8,6.8-6.9,11.9-6.9c5.1,0,7.3,2.1,11.9,6.9c5.3,5.5,12.5,13.1,26.4,13.1c13.9,0,21.1-7.6,26.4-13.1c4.6-4.8,6.8-6.9,11.9-6.9c5.1,0,7.3,2.1,11.9,6.9c5.3,5.5,12.5,13.1,26.4,13.1C335.4,225,337.9,224.7,340.1,224.2z"></path></g><path fill="#2b6e37" d="M149.1,8.4c-8,3.5-14.8,9.6-19.1,17.4c-4.4-7.9-11.1-13.9-19.1-17.4l-7.2,7.9c-3.4,3.7-2.6,9.6,1.6,12.3l6,4c4.2,2.8,4.9,8.6,1.6,12.3l-4.8,5.3c-3.4,3.7-2.6,9.6,1.6,12.3l0,0c6.3-2.9,13.8-3,20.4,0.4c6.6-3.4,14.1-3.3,20.4-0.4l0.1-0.1c4.2-2.8,4.9-8.6,1.6-12.3l-4.9-5.4c-3.4-3.7-2.6-9.6,1.6-12.3l5.9-3.8c4.2-2.7,5-8.6,1.6-12.4L149.1,8.4z"></path><path fill="#ffb20f" d="M402.7,30.6L402.7,30.6c5.8-3.7,6.8-11.8,2.2-16.9L397,5h-32l-8,8.7c-4.6,5.1-3.6,13.1,2.1,16.8l0.2,0.1c5.7,3.8,6.7,11.8,2.1,16.8l-0.1,0.1c-4.6,5.1-3.6,13.1,2.1,16.8l11.1,7.3l0.3,2.2c2.3-3.4,4.4-7.1,6.1-11c1.8,3.9,3.8,7.5,6.1,11l0.3-2.2l11.1-7.3c5.7-3.8,6.7-11.7,2.1-16.8l-0.2-0.2C395.9,42.3,397,34.3,402.7,30.6z"></path></svg>