<svg id="SvgjsSvg1292" width="288" height="288" xmlns="http://www.w3.org/2000/svg" version="1.1" xmlns:xlink="http://www.w3.org/1999/xlink" xmlns:svgjs="http://svgjs.com/svgjs"><defs id="SvgjsDefs1293"></defs><g id="SvgjsG1294"><svg xmlns="http://www.w3.org/2000/svg" enable-background="new 0 0 512 512" viewBox="0 0 512 512" width="288" height="288"><path fill="#ff0f62" d="M496,358.7H266V85c0-44.2,35.8-80,80-80h70c44.2,0,80,35.8,80,80V358.7z" class="colorffb20f svgShape"></path><linearGradient id="a" x1="268" x2="507" y1="380" y2="380" gradientUnits="userSpaceOnUse"><stop offset="0" stop-color="#bd2ebb" class="stopColor9abd2e svgShape"></stop><stop offset="1" stop-color="#d34b7a" class="stopColorb2d34b svgShape"></stop></linearGradient><path fill="url(#a)" d="M268,507h239V346.6c0-40.7-27.4-76.4-66.7-86.9l-24.8-6.6h-44l-26.5,6.3c-45.1,10.7-77,51-77,97.3V507z"></path><polygon fill="#ef7ba3" points="371.5 253 381.5 283 415.5 253 415.5 223 371.5 223" class="coloref917b svgShape"></polygon><linearGradient id="b" x1="246" x2="7" y1="380" y2="380" gradientUnits="userSpaceOnUse"><stop offset="0" stop-color="#c129bf" class="stopColorc12944 svgShape"></stop><stop offset="1" stop-color="#d848d6" class="stopColord84861 svgShape"></stop></linearGradient><path fill="url(#b)" d="M244,507H5V346.6c0-40.7,27.4-76.4,66.7-86.9l24.8-6.6h44l26.5,6.3c45.1,10.7,77,51,77,97.3V507z"></path><rect width="10" height="44" x="52" y="359" fill="#c129bf" class="colorc12944 svgShape"></rect><path fill="#ef7ba3" d="M140.5 253L140.5 253c0 19-24.3 26.9-35.5 11.6L96.5 253v-30h44V253zM130 155H39c-13.3 0-24-10.7-24-24v0c0-13.3 10.7-24 24-24h91V155zM130 107h91c13.3 0 24 10.7 24 24v0c0 13.3-10.7 24-24 24h-91V107z" class="coloref917b svgShape"></path><radialGradient id="c" cx="130" cy="76.333" r="89.677" gradientUnits="userSpaceOnUse"><stop offset="0" stop-color="#ef7ba3" class="stopColoref917b svgShape"></stop><stop offset="1" stop-color="#f5a9c3" class="stopColorf5b7a9 svgShape"></stop></radialGradient><path fill="url(#c)" d="M130,235L130,235c-43.1,0-78-34.9-78-78V35h156v122C208,200.1,173.1,235,130,235z"></path><linearGradient id="d" x1="31.518" x2="228.482" y1="56" y2="56" gradientUnits="userSpaceOnUse"><stop offset="0" stop-color="#395393" class="stopColor399349 svgShape"></stop><stop offset=".163" stop-color="#37518f" class="stopColor378f47 svgShape"></stop><stop offset=".331" stop-color="#334a82" class="stopColor338241 svgShape"></stop><stop offset=".5" stop-color="#2b3f6e" class="stopColor2b6e37 svgShape"></stop><stop offset=".669" stop-color="#334a82" class="stopColor338241 svgShape"></stop><stop offset=".837" stop-color="#37518f" class="stopColor378f47 svgShape"></stop><stop offset="1" stop-color="#395393" class="stopColor399349 svgShape"></stop></linearGradient><path fill="url(#d)" d="M130,25.9L130,25.9L130,25.9C122.9,13,109.4,5,94.7,5h0C54,5,23.9,42.9,33.2,82.6L39,107h29.2c9.2,0,17.6-5.4,21.3-13.8l8.5-19c5.5-12.2,20-17.3,32-11.3l0,0l0,0c11.9-6.1,26.5-0.9,32,11.3l8.5,19c3.8,8.4,12.1,13.8,21.3,13.8H221l5.7-24.4C236.1,42.9,206,5,165.3,5h0C150.6,5,137.1,13,130,25.9z"></path><radialGradient id="e" cx="382.333" cy="80.333" r="89.677" gradientUnits="userSpaceOnUse"><stop offset="0" stop-color="#ef7ba3" class="stopColoref917b svgShape"></stop><stop offset="1" stop-color="#f5a9c3" class="stopColorf5b7a9 svgShape"></stop></radialGradient><path fill="url(#e)" d="M381,235L381,235c-43.1,0-78-34.9-78-78V35h156v122C459,200.1,424.1,235,381,235z"></path><rect width="24" height="10" x="337" y="114" fill="#395393" class="color399349 svgShape"></rect><path fill="#395393" d="M366,153h-10v-14h-7v-10h12c2.8,0,5,2.2,5,5V153z" class="color399349 svgShape"></path><rect width="24" height="10" x="401" y="114" fill="#395393" class="color399349 svgShape"></rect><path fill="#395393" d="M406,153h-10v-19c0-2.8,2.2-5,5-5h12v10h-7V153z" class="color399349 svgShape"></path><path fill="#9e579d" d="M381.3,188c-1.1,0-2.2-0.4-3.2-1.1l-12.3-10l6.3-7.8l9.1,7.4l8.5-7.3l6.5,7.6l-11.7,10C383.6,187.6,382.5,188,381.3,188z" class="colord84861 svgShape"></path><rect width="10" height="148" x="450" y="359" fill="#bd2ebb" class="color9abd2e svgShape"></rect><rect width="24" height="10" x="86" y="114" fill="#395393" class="color399349 svgShape"></rect><rect width="10" height="19" x="105" y="134" fill="#395393" class="color399349 svgShape"></rect><rect width="24" height="10" x="150" y="114" fill="#395393" class="color399349 svgShape"></rect><rect width="10" height="19" x="145" y="134" fill="#395393" class="color399349 svgShape"></rect><path fill="#ef7ba3" d="M130,186.3c-8.5,0-17-3.2-23.5-9.7l7.1-7.1c9.1,9.1,23.9,9.1,32.9,0l7.1,7.1C147,183,138.5,186.3,130,186.3z" class="coloref917b svgShape"></path><linearGradient id="f" x1="266" x2="496" y1="98" y2="98" gradientUnits="userSpaceOnUse"><stop offset="0" stop-color="#ff5c94" class="stopColorffcb5c svgShape"></stop><stop offset=".112" stop-color="#ff5892" class="stopColorffca58 svgShape"></stop><stop offset=".227" stop-color="#ff4b89" class="stopColorffc64b svgShape"></stop><stop offset=".344" stop-color="#ff377c" class="stopColorffbf37 svgShape"></stop><stop offset=".462" stop-color="#ff1a69" class="stopColorffb61a svgShape"></stop><stop offset=".5" stop-color="#ff0f62" class="stopColorffb20f svgShape"></stop><stop offset=".538" stop-color="#ff1a69" class="stopColorffb61a svgShape"></stop><stop offset=".656" stop-color="#ff377c" class="stopColorffbf37 svgShape"></stop><stop offset=".773" stop-color="#ff4b89" class="stopColorffc64b svgShape"></stop><stop offset=".888" stop-color="#ff5892" class="stopColorffca58 svgShape"></stop><stop offset="1" stop-color="#ff5c94" class="stopColorffcb5c svgShape"></stop></linearGradient><path fill="url(#f)" d="M266,85v106h37v-84h9.6c29.5,0,56.2-17.2,68.4-44l0,0l0,0c12.2,26.8,38.9,44,68.4,44h9.6v47c0,20.4,16.6,37,37,37h0V85c0-44.2-35.8-80-80-80h-70C301.8,5,266,40.8,266,85z"></path><linearGradient id="g" x1="31" x2="31" y1="403.5" y2="505.044" gradientUnits="userSpaceOnUse"><stop offset="0" stop-color="#ef7ba3" class="stopColoref917b svgShape"></stop><stop offset=".103" stop-color="#f084a9" class="stopColorf09884 svgShape"></stop><stop offset=".408" stop-color="#fc85ae" class="stopColorf3a998 svgShape"></stop><stop offset=".709" stop-color="#f4a5c0" class="stopColorf4b4a5 svgShape"></stop><stop offset="1" stop-color="#f5a9c3" class="stopColorf5b7a9 svgShape"></stop></linearGradient><rect width="52" height="104" x="5" y="403" fill="url(#g)"></rect><path fill="#ef7ba3" d="M256 295h-79.2c-11.5 0-20.8-9.3-20.8-20.8v-.3c0-11.5 9.3-20.8 20.8-20.8H256V295zM256 253h79.2c11.5 0 20.8 9.3 20.8 20.8v.3c0 11.5-9.3 20.8-20.8 20.8H256V253z" class="coloref917b svgShape"></path><linearGradient id="h" x1="256" x2="256" y1="383.5" y2="505.016" gradientUnits="userSpaceOnUse"><stop offset="0" stop-color="#ff0f62" class="stopColorffb20f svgShape"></stop><stop offset="1" stop-color="#ff5c94" class="stopColorffcb5c svgShape"></stop></linearGradient><path fill="url(#h)" d="M340,507H172v-70.2c0-21.9,14.2-41.2,35.1-47.7l28.9-9h40l28.9,9c20.9,6.5,35.1,25.9,35.1,47.7V507z"></path><path fill="#ef7ba3" d="M276,352h-40v28l-14,4.4l0,0c20.4,14.2,47.6,14.2,68,0l0,0l-14-4.4V352z" class="coloref917b svgShape"></path><radialGradient id="i" cx="256.667" cy="245" r="78.08" gradientUnits="userSpaceOnUse"><stop offset="0" stop-color="#ef7ba3" class="stopColoref917b svgShape"></stop><stop offset="1" stop-color="#f5a9c3" class="stopColorf5b7a9 svgShape"></stop></radialGradient><path fill="url(#i)" d="M256,365L256,365c-37.6,0-68-30.4-68-68V191h136v106C324,334.6,293.6,365,256,365z"></path><rect width="10" height="17" x="234" y="277" fill="#395393" class="color399349 svgShape"></rect><rect width="10" height="17" x="268" y="277" fill="#395393" class="color399349 svgShape"></rect><path fill="#ef7ba3" d="M256,323.9L256,323.9c-8,0-15.6-3.5-20.8-9.6l7.6-6.5c3.3,3.9,8.1,6.1,13.2,6.1s9.9-2.2,13.2-6.1l7.6,6.5C271.6,320.4,264,323.9,256,323.9z" class="coloref917b svgShape"></path><linearGradient id="j" x1="187" x2="187" y1="478" y2="506" gradientUnits="userSpaceOnUse"><stop offset="0" stop-color="#ef7ba3" class="stopColoref917b svgShape"></stop><stop offset=".103" stop-color="#f084a9" class="stopColorf09884 svgShape"></stop><stop offset=".408" stop-color="#fc85ae" class="stopColorf3a998 svgShape"></stop><stop offset=".709" stop-color="#f4a5c0" class="stopColorf4b4a5 svgShape"></stop><stop offset="1" stop-color="#f5a9c3" class="stopColorf5b7a9 svgShape"></stop></linearGradient><rect width="30" height="30" x="172" y="477" fill="url(#j)"></rect><linearGradient id="k" x1="325" x2="325" y1="478" y2="506" gradientUnits="userSpaceOnUse"><stop offset="0" stop-color="#ef7ba3" class="stopColoref917b svgShape"></stop><stop offset=".103" stop-color="#f084a9" class="stopColorf09884 svgShape"></stop><stop offset=".408" stop-color="#fc85ae" class="stopColorf3a998 svgShape"></stop><stop offset=".709" stop-color="#f4a5c0" class="stopColorf4b4a5 svgShape"></stop><stop offset="1" stop-color="#f5a9c3" class="stopColorf5b7a9 svgShape"></stop></linearGradient><rect width="30" height="30" x="310" y="477" fill="url(#k)"></rect><rect width="10" height="30" x="197" y="447" fill="#ff0f62" class="colorffb20f svgShape"></rect><rect width="10" height="30" x="305" y="447" fill="#ff0f62" class="colorffb20f svgShape"></rect><linearGradient id="l" x1="256" x2="256" y1="166" y2="253.006" gradientUnits="userSpaceOnUse"><stop offset="0" stop-color="#395393" class="stopColor399349 svgShape"></stop><stop offset=".163" stop-color="#3b5697" class="stopColor3b974b svgShape"></stop><stop offset=".331" stop-color="#3f5da4" class="stopColor3fa451 svgShape"></stop><stop offset=".5" stop-color="#574b90" class="stopColor47b85b svgShape"></stop><stop offset=".669" stop-color="#3f5da4" class="stopColor3fa451 svgShape"></stop><stop offset=".837" stop-color="#3b5697" class="stopColor3b974b svgShape"></stop><stop offset="1" stop-color="#395393" class="stopColor399349 svgShape"></stop></linearGradient><path fill="url(#l)" d="M176.8,253l-3.4-14.2c-8.9-37.7,19.7-73.8,58.4-73.8h48.3c38.7,0,67.3,36.1,58.4,73.8l-3.4,14.2h-20.7c-10.8,0-19.5-8.7-19.5-19.5V233v0.5c0,10.8-8.7,19.5-19.5,19.5h0c-10.8,0-19.5-8.7-19.5-19.5V233v0.5c0,10.8-8.7,19.5-19.5,19.5h0c-10.8,0-19.5-8.7-19.5-19.5V233v0.5c0,10.8-8.7,19.5-19.5,19.5H176.8z"></path><radialGradient id="m" cx="219" cy="302.5" r="9.83" gradientUnits="userSpaceOnUse"><stop offset=".5" stop-color="#ef7ba3" class="stopColoref917b svgShape"></stop><stop offset="1" stop-color="#ef7ba3" stop-opacity="0" class="stopColoref917b svgShape"></stop></radialGradient><ellipse cx="219" cy="302.5" fill="url(#m)" rx="11" ry="8.5"></ellipse><radialGradient id="n" cx="293" cy="302.5" r="9.83" gradientUnits="userSpaceOnUse"><stop offset=".5" stop-color="#ef7ba3" class="stopColoref917b svgShape"></stop><stop offset="1" stop-color="#ef7ba3" stop-opacity="0" class="stopColoref917b svgShape"></stop></radialGradient><ellipse cx="293" cy="302.5" fill="url(#n)" rx="11" ry="8.5"></ellipse><g fill="#000000" class="color000 svgShape"><path fill="#303a52" d="M256,370c-40.3,0-73-32.7-73-73v-44h10v44c0,34.7,28.3,63,63,63s63-28.3,63-63v-44h10v44C329,337.3,296.3,370,256,370z" class="color13392d svgShape"></path><rect width="10" height="17" x="234" y="277" fill="#303a52" class="color13392d svgShape"></rect><rect width="10" height="17" x="268" y="277" fill="#303a52" class="color13392d svgShape"></rect><path fill="#303a52" d="M188 300h-11.2c-14.2 0-25.8-11.6-25.8-25.8v-.3c0-14.2 11.6-25.8 25.8-25.8H188c2.8 0 5 2.2 5 5v42C193 297.8 190.8 300 188 300zM176.8 258c-8.7 0-15.8 7.1-15.8 15.8v.3c0 8.7 7.1 15.8 15.8 15.8h6.2v-32H176.8zM335.2 300H324c-2.8 0-5-2.2-5-5v-42c0-2.8 2.2-5 5-5h11.2c14.2 0 25.8 11.6 25.8 25.8v.3C361 288.4 349.4 300 335.2 300zM329 290h6.2c8.7 0 15.8-7.1 15.8-15.8v-.3c0-8.7-7.1-15.8-15.8-15.8H329V290zM256 323.9C256 323.9 256 323.9 256 323.9c-8 0-15.6-3.5-20.8-9.6l7.6-6.5c3.3 3.9 8.1 6.1 13.2 6.1s9.9-2.2 13.2-6.1l7.6 6.5C271.6 320.4 264 323.9 256 323.9zM256 400c-12.9 0-25.8-3.8-36.9-11.5-1.6-1.1-2.4-3-2.1-4.9.3-1.9 1.6-3.4 3.5-4l10.5-3.3V362h10v18c0 2.2-1.4 4.1-3.5 4.8l-2.8.9c13.6 5.8 29.1 5.8 42.7 0l-2.8-.9c-2.1-.7-3.5-2.6-3.5-4.8v-18h10v14.3l10.5 3.3c1.8.6 3.2 2.1 3.5 4 .3 1.9-.5 3.8-2.1 4.9C281.8 396.1 268.9 400 256 400z" class="color13392d svgShape"></path><path fill="#303a52" d="M340 512H172c-2.8 0-5-2.2-5-5v-70.2c0-24.2 15.5-45.3 38.6-52.5l14.9-4.7 3 9.5-14.9 4.7c-18.9 5.9-31.6 23.2-31.6 43V502h163V512zM345 457h-10v-20.2c0-19.8-12.7-37-31.6-43l-14.9-4.7 3-9.5 14.9 4.7c23.1 7.2 38.6 28.3 38.6 52.5V457z" class="color13392d svgShape"></path><path fill="#303a52" d="M202 512h-30c-2.8 0-5-2.2-5-5v-30c0-2.8 2.2-5 5-5h30c2.8 0 5 2.2 5 5v30C207 509.8 204.8 512 202 512zM177 502h20v-20h-20V502zM340 512h-30c-2.8 0-5-2.2-5-5v-30c0-2.8 2.2-5 5-5h30c2.8 0 5 2.2 5 5v30C345 509.8 342.8 512 340 512zM315 502h20v-20h-20V502z" class="color13392d svgShape"></path><rect width="10" height="30" x="197" y="447" fill="#303a52" class="color13392d svgShape"></rect><rect width="10" height="30" x="305" y="447" fill="#303a52" class="color13392d svgShape"></rect><path fill="#303a52" d="M335.2,258h-20.7c-7.9,0-15-3.8-19.5-9.7c-4.5,5.9-11.6,9.7-19.5,9.7s-15-3.8-19.5-9.7c-4.5,5.9-11.6,9.7-19.5,9.7s-15-3.8-19.5-9.7c-4.5,5.9-11.6,9.7-19.5,9.7h-20.7c-2.3,0-4.3-1.6-4.9-3.8l-3.4-14.2c-4.6-19.5-0.1-39.6,12.3-55.3c12.4-15.7,31-24.7,51-24.7h48.3c20,0,38.6,9,51,24.7c12.4,15.7,16.9,35.8,12.3,55.3l-3.4,14.2C339.5,256.4,337.5,258,335.2,258z M300,233v0.5c0,8,6.5,14.5,14.5,14.5h16.7l2.4-10.3c3.9-16.5,0.1-33.5-10.4-46.8c-10.5-13.3-26.2-20.9-43.1-20.9h-48.3c-16.9,0-32.6,7.6-43.1,20.9s-14.3,30.3-10.4,46.8l2.4,10.3h16.7c8,0,14.5-6.5,14.5-14.5V233c0-2.8,2.2-5,5-5s5,2.2,5,5v0.5c0,8,6.5,14.5,14.5,14.5s14.5-6.5,14.5-14.5V233c0-2.8,2.2-5,5-5c2.8,0,5,2.2,5,5v0.5c0,8,6.5,14.5,14.5,14.5s14.5-6.5,14.5-14.5V233c0-2.8,2.2-5,5-5S300,230.2,300,233z" class="color13392d svgShape"></path><path fill="#303a52" d="M130 240c-45.8 0-83-37.2-83-83v-50h10v50c0 40.3 32.7 73 73 73 14 0 27.6-4 39.3-11.5l5.4 8.4C161.4 235.5 145.9 240 130 240zM211.8 171.3l-9.9-1.7c.7-4.1 1.1-8.4 1.1-12.6v-50h10v50C213 161.8 212.6 166.6 211.8 171.3z" class="color13392d svgShape"></path><path fill="#303a52" d="M52 160H39c-16 0-29-13-29-29s13-29 29-29h13c2.8 0 5 2.2 5 5v48C57 157.8 54.8 160 52 160zM39 112c-10.5 0-19 8.5-19 19s8.5 19 19 19h8v-38H39zM221 160h-13c-2.8 0-5-2.2-5-5v-48c0-2.8 2.2-5 5-5h13c16 0 29 13 29 29S237 160 221 160zM213 150h8c10.5 0 19-8.5 19-19s-8.5-19-19-19h-8V150z" class="color13392d svgShape"></path><path fill="#303a52" d="M221,112h-29.2c-11.2,0-21.3-6.6-25.9-16.8l-8.5-19c-2.1-4.6-5.9-8.1-10.7-9.8c-4.8-1.7-9.9-1.3-14.5,1c-1.4,0.7-3.1,0.7-4.5,0c-4.5-2.3-9.7-2.6-14.5-1c-4.8,1.7-8.6,5.2-10.7,9.8l-8.5,19C89.5,105.4,79.3,112,68.2,112H39c-2.3,0-4.3-1.6-4.9-3.9l-5.7-24.4c-4.8-20.4-0.1-41.5,12.9-57.9C54.3,9.4,73.7,0,94.7,0c13.9,0,26.8,6.3,35.3,16.9C138.5,6.3,151.5,0,165.3,0c20.9,0,40.4,9.4,53.4,25.8c13,16.4,17.7,37.5,12.9,57.9l-5.7,24.4C225.4,110.4,223.4,112,221,112z M140.6,55.4c3.2,0,6.4,0.5,9.5,1.6c7.4,2.6,13.2,8,16.5,15.1l8.5,19c3,6.6,9.5,10.9,16.8,10.9h25.3l4.8-20.6C226,64,222,46,210.9,32s-27.7-22-45.6-22c-12.9,0-24.7,7-30.9,18.3c-0.9,1.6-2.6,2.6-4.4,2.6s-3.5-1-4.4-2.6C119.4,17,107.5,10,94.7,10c-17.9,0-34.5,8-45.6,22S34,64,38.1,81.4l4.8,20.6h25.3c7.2,0,13.8-4.3,16.8-10.9l8.5-19c3.2-7.2,9.1-12.5,16.5-15.1c6.6-2.3,13.6-2.2,20.1,0.4C133.4,56.1,137,55.4,140.6,55.4z" class="color13392d svgShape"></path><rect width="10" height="37" x="125" y="26" fill="#303a52" class="color13392d svgShape"></rect><path fill="#303a52" d="M496,196c-23.2,0-42-18.8-42-42v-42h-4.6c-28.1,0-54-14.8-68.4-38.4c-14.4,23.6-40.3,38.4-68.4,38.4H308v45c0,4.1,0.3,8.1,1,12.1l-9.9,1.6c-0.8-4.5-1.1-9.2-1.1-13.8v-50c0-2.8,2.2-5,5-5h9.6c27.4,0,52.5-16.1,63.8-41.1c0.8-1.8,2.6-2.9,4.6-2.9s3.7,1.1,4.6,2.9c11.3,25,36.4,41.1,63.8,41.1h9.6c2.8,0,5,2.2,5,5v47c0,15.9,11.7,29.2,27,31.6V85c0-41.4-33.6-75-75-75h-70c-41.4,0-75,33.6-75,75v60h-10V85c0-46.9,38.1-85,85-85h70c46.9,0,85,38.1,85,85v106C501,193.8,498.8,196,496,196z" class="color13392d svgShape"></path><path fill="#303a52" d="M381 240c-15.4 0-30.4-4.2-43.5-12.3l5.2-8.5c11.5 7.1 24.7 10.8 38.2 10.8 40.3 0 73-32.7 73-73v-50h10v50C464 202.8 426.8 240 381 240zM57 512H5c-2.8 0-5-2.2-5-5V403c0-2.8 2.2-5 5-5h52c2.8 0 5 2.2 5 5v104C62 509.8 59.8 512 57 512zM10 502h42v-94H10V502z" class="color13392d svgShape"></path><rect width="10" height="44" x="52" y="359" fill="#303a52" class="color13392d svgShape"></rect><rect width="24" height="10" x="337" y="114" fill="#303a52" class="color13392d svgShape"></rect><path fill="#303a52" d="M366,153h-10v-14h-7v-10h12c2.8,0,5,2.2,5,5V153z" class="color13392d svgShape"></path><rect width="24" height="10" x="401" y="114" fill="#303a52" class="color13392d svgShape"></rect><path fill="#303a52" d="M406 153h-10v-19c0-2.8 2.2-5 5-5h12v10h-7V153zM381.3 188c-1.1 0-2.2-.4-3.2-1.1l-12.3-10 6.3-7.8 9.1 7.4 8.5-7.3 6.5 7.6-11.7 10C383.6 187.6 382.5 188 381.3 188z" class="color13392d svgShape"></path><rect width="10" height="148" x="450" y="359" fill="#303a52" class="color13392d svgShape"></rect><rect width="24" height="10" x="86" y="114" fill="#303a52" class="color13392d svgShape"></rect><rect width="10" height="19" x="105" y="134" fill="#303a52" class="color13392d svgShape"></rect><rect width="24" height="10" x="150" y="114" fill="#303a52" class="color13392d svgShape"></rect><rect width="10" height="19" x="145" y="134" fill="#303a52" class="color13392d svgShape"></rect><path fill="#303a52" d="M130 186.3c-8.5 0-17-3.2-23.5-9.7l7.1-7.1c9.1 9.1 23.9 9.1 32.9 0l7.1 7.1C147 183 138.5 186.3 130 186.3zM172 512H5c-2.8 0-5-2.2-5-5V346.6c0-42.9 29-80.7 70.4-91.8l24.8-6.6 2.6 9.7L73 264.5c-37.1 9.9-63 43.7-63 82.1V502h162V512z" class="color13392d svgShape"></path><rect width="23.1" height="10" x="140.2" y="250.7" fill="#303a52" transform="rotate(13.32 151.724 255.604)" class="color13392d svgShape"></rect><path fill="#303a52" d="M381.5,288c-0.4,0-0.9-0.1-1.3-0.2c-1.6-0.4-2.9-1.7-3.4-3.2l-10-30c-0.2-0.5-0.3-1-0.3-1.6v-18.6h10v17.8l7.4,22.1l26.6-23.5V227h10v26c0,1.4-0.6,2.8-1.7,3.7l-34,30C383.9,287.6,382.7,288,381.5,288z" class="color13392d svgShape"></path><path fill="#303a52" d="M507,512H340v-10h162V346.6c0-38.4-25.9-72.2-63-82.1l-24.8-6.6l2.6-9.7l24.8,6.6c41.5,11.1,70.4,48.8,70.4,91.8V507C512,509.8,509.8,512,507,512z" class="color13392d svgShape"></path><rect width="10" height="23.1" x="355.3" y="244.1" fill="#303a52" transform="rotate(76.685 360.29 255.665)" class="color13392d svgShape"></rect><path fill="#303a52" d="M120.7,277.7c-7.6,0-14.9-3.6-19.7-10.1L92.5,256c-0.6-0.9-1-1.9-1-3v-25.5h10v23.9l7.6,10.3c4.6,6.3,11.5,6.9,16.4,5.3c4.9-1.6,10.1-6.1,10.1-13.9v-18.7h10V253c0,10.9-6.7,20-17,23.4C125.9,277.3,123.3,277.7,120.7,277.7z" class="color13392d svgShape"></path><rect width="10" height="112.5" x="491" y="191" fill="#303a52" class="color13392d svgShape"></rect></g></svg></g></svg>