<svg xmlns="http://www.w3.org/2000/svg" enable-background="new 0 0 512 512" viewBox="0 0 512 512" id="program-list"><path fill="#ebe287" d="M62.54 422.43c2.14 5.85 7.54 9.63 13.75 9.63 6.21 0 11.61-3.78 13.75-9.63l16.48-45.05H46.06L62.54 422.43zM95.409 74.97c2.613 0 5.052.722 7.151 1.959V42.58c0-8.095-6.585-14.68-14.68-14.68H64.7c-8.095 0-14.68 6.585-14.68 14.68v34.349c2.099-1.237 4.538-1.959 7.151-1.959H95.409z"></path><path fill="#a3a8c4" d="M35.15,241.63V132.2c0-1.42,0.69-2.72,1.84-3.48l6.06-4.01v-23.96l-17.08,11.28
		c-6.78,4.47-10.82,12.01-10.82,20.17v114.73c0,8.11,6.57,14.7,14.65,14.7h13.25v-20H35.15z"></path><path fill="#988fc4" d="M102.56,76.929c-2.099-1.237-4.538-1.959-7.151-1.959H57.171c-2.613,0-5.052,0.722-7.151,1.959
		c-4.166,2.455-6.97,6.975-6.97,12.161v11.659v23.96v116.92v20v105.75c0,1.16,0.2,2.32,0.61,3.44l2.4,6.56h60.46l2.4-6.56
		c0.41-1.12,0.61-2.28,0.61-3.44V89.091C109.53,83.905,106.726,79.385,102.56,76.929z"></path><rect width="26.487" height="27.069" x="195.559" y="199.944" fill="#f5f5fc"></rect><rect width="26.487" height="27.069" x="195.559" y="94.969" fill="#f5f5fc"></rect><rect width="26.487" height="27.068" x="195.559" y="304.919" fill="#f5f5fc"></rect><path fill="#f5f5fc" d="M323.534,396.484c0-44.892,33.568-81.999,76.656-87.028v-4.537h-21.977c-0.584,0-1.153-0.06-1.709-0.156
		c-0.227,5.322-4.601,9.571-9.978,9.571H264.255c-5.522,0-10-4.478-10-10s4.478-10,10-10h102.271c0.576,0,1.138,0.06,1.688,0.153
		v-8.013c0-22.256,18.106-40.363,40.362-40.363h4.434c2.451,0,4.849,0.232,7.181,0.653V52.021c0-13.3-10.82-24.121-24.12-24.121
		H156.015c-13.3,0-24.121,10.82-24.121,24.121v330.344c0,13.3,10.82,24.12,24.121,24.12h168.087
		C323.731,403.201,323.534,399.866,323.534,396.484z M227.339,247.013h-37.073c-8.109,0-14.707-6.598-14.707-14.707V194.65
		c0-8.109,6.598-14.707,14.707-14.707h37.073c8.109,0,14.707,6.597,14.707,14.707v37.655
		C242.045,240.415,235.448,247.013,227.339,247.013z M242.045,299.626v37.655c0,8.109-6.597,14.706-14.707,14.706h-37.073
		c-8.109,0-14.707-6.597-14.707-14.706v-37.655c0-8.109,6.598-14.707,14.707-14.707h37.073
		C235.448,284.919,242.045,291.517,242.045,299.626z M227.339,142.038h-37.073c-8.109,0-14.707-6.598-14.707-14.707V89.676
		c0-8.109,6.598-14.707,14.707-14.707h37.073c8.109,0,14.707,6.598,14.707,14.707v37.655
		C242.045,135.44,235.448,142.038,227.339,142.038z M264.255,322.574h71.17c5.522,0,10,4.478,10,10s-4.478,10-10,10h-71.17
		c-5.522,0-10-4.478-10-10S258.732,322.574,264.255,322.574z M335.425,237.599h-71.17c-5.522,0-10-4.477-10-10s4.478-10,10-10h71.17
		c5.522,0,10,4.477,10,10S340.947,237.599,335.425,237.599z M366.526,209.357H264.255c-5.522,0-10-4.477-10-10s4.478-10,10-10
		h102.271c5.522,0,10,4.477,10,10S372.049,209.357,366.526,209.357z M254.255,122.624c0-5.523,4.478-10,10-10h71.17
		c5.522,0,10,4.477,10,10s-4.478,10-10,10h-71.17C258.732,132.624,254.255,128.147,254.255,122.624z M366.526,104.382H264.255
		c-5.522,0-10-4.477-10-10s4.478-10,10-10h102.271c5.522,0,10,4.477,10,10S372.049,104.382,366.526,104.382z"></path><path fill="#de8bae" d="M242.045 89.676c0-8.109-6.597-14.707-14.707-14.707h-37.073c-8.109 0-14.707 6.598-14.707 14.707v37.655c0 8.109 6.598 14.707 14.707 14.707h37.073c8.109 0 14.707-6.598 14.707-14.707V89.676zM222.045 122.038h-26.487V94.969h26.487V122.038zM366.526 84.382H264.255c-5.522 0-10 4.477-10 10s4.478 10 10 10h102.271c5.522 0 10-4.477 10-10S372.049 84.382 366.526 84.382zM264.255 132.624h71.17c5.522 0 10-4.477 10-10s-4.478-10-10-10h-71.17c-5.522 0-10 4.477-10 10S258.732 132.624 264.255 132.624zM242.045 194.65c0-8.109-6.597-14.707-14.707-14.707h-37.073c-8.109 0-14.707 6.597-14.707 14.707v37.655c0 8.109 6.598 14.707 14.707 14.707h37.073c8.109 0 14.707-6.598 14.707-14.707V194.65zM222.045 227.013h-26.487v-27.069h26.487V227.013zM366.526 189.357H264.255c-5.522 0-10 4.477-10 10s4.478 10 10 10h102.271c5.522 0 10-4.477 10-10S372.049 189.357 366.526 189.357zM335.425 217.599h-71.17c-5.522 0-10 4.477-10 10s4.478 10 10 10h71.17c5.522 0 10-4.477 10-10S340.947 217.599 335.425 217.599zM227.339 284.919h-37.073c-8.109 0-14.707 6.598-14.707 14.707v37.655c0 8.109 6.598 14.706 14.707 14.706h37.073c8.109 0 14.707-6.597 14.707-14.706v-37.655C242.045 291.517 235.448 284.919 227.339 284.919zM222.045 331.987h-26.487v-27.068h26.487V331.987zM368.214 294.919v-.433c-.55-.094-1.111-.153-1.688-.153H264.255c-5.522 0-10 4.478-10 10s4.478 10 10 10h102.271c5.378 0 9.752-4.249 9.978-9.571C371.798 303.95 368.214 299.857 368.214 294.919zM264.255 342.574h71.17c5.522 0 10-4.478 10-10s-4.478-10-10-10h-71.17c-5.522 0-10 4.478-10 10S258.732 342.574 264.255 342.574z"></path><path fill="#a3a8c4" d="M400.19,304.919v4.537c3.282-0.383,6.618-0.587,10-0.587s6.718,0.204,10,0.587v-4.537H400.19z"></path><path fill="#ebe287" d="M420.19,309.456c-3.282-0.383-6.618-0.587-10-0.587s-6.718,0.204-10,0.587
		c-43.089,5.029-76.656,42.137-76.656,87.028c0,3.382,0.197,6.717,0.568,10c4.925,43.619,41.651,77.616,86.088,77.616
		c47.782,0,86.656-39.305,86.656-87.616C496.847,351.592,463.279,314.485,420.19,309.456z M354.197,396.484
		c0-31.192,25.118-56.569,55.993-56.569s55.994,25.377,55.994,56.569s-25.119,56.569-55.994,56.569S354.197,427.677,354.197,396.484
		z"></path><path fill="#f5f5fc" d="M410.19,453.054c30.875,0,55.994-25.377,55.994-56.569s-25.119-56.569-55.994-56.569
		s-55.993,25.377-55.993,56.569S379.315,453.054,410.19,453.054z M429.902,386.484c5.522,0,10,4.478,10,10s-4.478,10-10,10H410.19
		c-5.522,0-10-4.478-10-10v-19.958c0-5.522,4.478-10,10-10s10,4.478,10,10v9.958H429.902z"></path><path fill="#de8bae" d="M420.19,376.526c0-5.522-4.478-10-10-10s-10,4.478-10,10v19.958c0,5.522,4.478,10,10,10h19.712
		c5.522,0,10-4.478,10-10s-4.478-10-10-10h-9.712V376.526z"></path><path fill="#ebe287" d="M408.576,246.111c-22.256,0-40.362,18.107-40.362,40.363v8.013v0.433c0,4.939,3.584,9.031,8.291,9.844
		c0.556,0.096,1.125,0.156,1.709,0.156h21.977h20h23.182c5.522,0,10-4.478,10-10v-8.445c0-19.804-14.341-36.311-33.182-39.71
		c-2.332-0.421-4.729-0.653-7.181-0.653H408.576z"></path></svg>