<svg xmlns="http://www.w3.org/2000/svg" xmlns:xlink="http://www.w3.org/1999/xlink" viewBox="0 0 128 128" id="young-boy"><defs><linearGradient id="a" x1="63" x2="63" y1="60" y2="105" gradientUnits="userSpaceOnUse"><stop offset="0" stop-color="#f4b7a4"></stop><stop offset="1" stop-color="#e57e70"></stop></linearGradient><linearGradient id="b" x1="58" x2="58" y1="60" y2="105" gradientUnits="userSpaceOnUse"><stop offset="0" stop-color="#e57e70"></stop><stop offset="1" stop-color="#c66258"></stop></linearGradient><linearGradient id="f" x1="63" x2="63" y1="84" y2="105" gradientUnits="userSpaceOnUse"><stop offset="0" stop-color="#e57e70" stop-opacity="0"></stop><stop offset=".242" stop-color="#e57e70"></stop></linearGradient><linearGradient id="g" x1="90" x2="50" y1="50.5" y2="50.5" xlink:href="#a"></linearGradient><linearGradient id="h" x1="70" x2="70" y1="53" y2="79" gradientUnits="userSpaceOnUse"><stop offset="0" stop-color="#e57e70" stop-opacity="0"></stop><stop offset=".997" stop-color="#e57e70"></stop></linearGradient><linearGradient id="i" x1="74" x2="50" y1="50.5" y2="50.5" xlink:href="#b"></linearGradient><linearGradient id="j" x1="110" x2="15" y1="108" y2="108" gradientUnits="userSpaceOnUse"><stop offset="0" stop-color="#ff4d6c"></stop><stop offset="1" stop-color="#ff0825"></stop></linearGradient><linearGradient id="c" x1="76.705" x2="76.705" y1="50" y2="60" gradientUnits="userSpaceOnUse"><stop offset="0" stop-color="#e03f53"></stop><stop offset="1" stop-color="#b73248"></stop></linearGradient><linearGradient id="d" x1="70" x2="81" y1="66" y2="66" gradientUnits="userSpaceOnUse"><stop offset="0" stop-color="#ededed"></stop><stop offset="1" stop-color="#d0d0d0"></stop></linearGradient><linearGradient id="k" x1="69.141" x2="81.04" y1="69.5" y2="69.5" xlink:href="#c"></linearGradient><linearGradient id="l" x1="68" x2="70" y1="45" y2="45" xlink:href="#d"></linearGradient><linearGradient id="m" x1="83" x2="85" y1="45" y2="45" xlink:href="#d"></linearGradient><linearGradient id="n" x1="80" x2="45" y1="92.5" y2="92.5" xlink:href="#d"></linearGradient><linearGradient id="o" x1="62.5" x2="62.5" y1="92" y2="96" gradientUnits="userSpaceOnUse"><stop offset="0" stop-color="#d0d0d0" stop-opacity="0"></stop><stop offset=".96" stop-color="#d0d0d0"></stop></linearGradient><linearGradient id="p" x1="62.5" x2="62.5" y1="108" y2="120" gradientUnits="userSpaceOnUse"><stop offset="0" stop-color="#ff0825" stop-opacity="0"></stop><stop offset=".992" stop-color="#ff0825"></stop></linearGradient><linearGradient id="e" x1="64" x2="64" y1="102" y2="120" gradientUnits="userSpaceOnUse"><stop offset="0" stop-color="#cf1d37"></stop><stop offset="1" stop-color="#cf0018"></stop></linearGradient><linearGradient id="q" x1="43" x2="15" y1="108" y2="108" xlink:href="#e"></linearGradient><linearGradient id="r" x1="50.5" x2="50.5" y1="43" y2="60" xlink:href="#b"></linearGradient></defs><g data-name="Layer 2"><path fill="#053541" d="M58 15h15a16 16 0 0 1 16 16v37H46a4 4 0 0 1-4-4V31a16 16 0 0 1 16-16Z"></path><path fill="url(#a)" d="M51 60h24v36.93a8.07 8.07 0 0 1-8.07 8.07h-7.86A8.07 8.07 0 0 1 51 96.93V60Z"></path><path fill="url(#b)" d="M57 97V60h-6v37a8 8 0 0 0 8 8h6a8 8 0 0 1-8-8Z"></path><path fill="url(#f)" d="M51 84h24v13a8 8 0 0 1-8 8h-8a8 8 0 0 1-8-8V84Z"></path><rect width="40" height="57" x="50" y="22" fill="url(#g)" rx="16"></rect><path fill="url(#h)" d="M50 53v10a16 16 0 0 0 16 16h8a16 16 0 0 0 16-16V53Z"></path><path fill="url(#i)" d="M58 63V38a16 16 0 0 1 16-16h-8a16 16 0 0 0-16 16v25a16 16 0 0 0 16 16h8a16 16 0 0 1-16-16Z"></path><rect width="4" height="6" x="66" y="43" fill="#053541" rx="2"></rect><rect width="4" height="6" x="81" y="43" fill="#053541" rx="2"></rect><path fill="url(#j)" d="M29 96h67a14 14 0 0 1 14 14v10H15v-10a14 14 0 0 1 14-14Z"></path><path fill="url(#c)" d="M77.688 60H75.72A1.72 1.72 0 0 1 74 58.28v-6.56A1.72 1.72 0 0 1 75.72 50a1.72 1.72 0 0 1 1.648 1.226l1.968 6.56A1.72 1.72 0 0 1 77.688 60Z"></path><path fill="#053541" d="M70 65h11a1 1 0 0 1 1 1v1a4 4 0 0 1-4 4h-5a4 4 0 0 1-4-4v-1a1 1 0 0 1 1-1Z"></path><path fill="url(#d)" d="M70 65h11v1a1 1 0 0 1-1 1h-9a1 1 0 0 1-1-1v-1Z"></path><path fill="url(#k)" d="M81.04 69.573A5.97 5.97 0 0 0 77 68h-7.859A3.99 3.99 0 0 0 73 71h5a3.973 3.973 0 0 0 3.04-1.427Z"></path><path fill="#053541" d="M71 42a.997.997 0 0 1-.707-.293 4.063 4.063 0 0 0-4.597.011 1.008 1.008 0 0 1-1.408-.029.992.992 0 0 1 .005-1.396 5.96 5.96 0 0 1 7.414 0A1 1 0 0 1 71 42zm15 0a.997.997 0 0 1-.707-.293 4.063 4.063 0 0 0-4.597.011 1.008 1.008 0 0 1-1.408-.029.992.992 0 0 1 .005-1.396 5.96 5.96 0 0 1 7.414 0A1 1 0 0 1 86 42z"></path><circle cx="69" cy="45" r="1" fill="url(#l)"></circle><circle cx="84" cy="45" r="1" fill="url(#m)"></circle><path fill="url(#n)" d="M45 89h35v7H45z"></path><path fill="url(#o)" d="M45 92h35v4H45z"></path><path fill="url(#p)" d="M15.191 108a11.725 11.725 0 0 0-.191 2v10h95v-10a11.725 11.725 0 0 0-.191-2Z"></path><path fill="url(#e)" d="M61 102h6v18h-6z"></path><path fill="url(#q)" d="M43 96H29a14 14 0 0 0-14 14v10h14v-10a14 14 0 0 1 14-14Z"></path></g><g data-name="Layer 3"><path fill="url(#r)" d="M52 43h2a2 2 0 0 1 2 2v13a2 2 0 0 1-2 2h-2a7 7 0 0 1-7-7v-3a7 7 0 0 1 7-7Z"></path><path fill="#bc453f" d="M54 47v9h-2a3 3 0 0 1-3-3v-3a3 3 0 0 1 3-3h2Z"></path><path fill="#053541" d="M49 18h24a18 18 0 0 1-18 18h-6V18Z"></path><path fill="#053541" d="M68 15h22.5a6.5 6.5 0 0 1 6.5 6.5 6.5 6.5 0 0 1-6.5 6.5H68V15Z"></path></g></svg>